<?xml version="1.0" encoding="UTF-8" standalone="no"?>
<svg
   width="900"
   height="1260"
   viewBox="0 0 900 1260"
   version="1.1"
   id="svg114"
   sodipodi:docname="ilumina_identidad_corporativa_v2.svg"
   inkscape:version="1.4.2 (f4327f4, 2025-05-13)"
   inkscape:export-filename="gigiApp\docs\ilumina_identidad_corporativa_v2.png"
   inkscape:export-xdpi="96"
   inkscape:export-ydpi="96"
   xmlns:inkscape="http://www.inkscape.org/namespaces/inkscape"
   xmlns:sodipodi="http://sodipodi.sourceforge.net/DTD/sodipodi-0.dtd"
   xmlns="http://www.w3.org/2000/svg"
   xmlns:svg="http://www.w3.org/2000/svg">
  <sodipodi:namedview
     id="namedview114"
     pagecolor="#ffffff"
     bordercolor="#000000"
     borderopacity="0.25"
     inkscape:showpageshadow="2"
     inkscape:pageopacity="0.0"
     inkscape:pagecheckerboard="0"
     inkscape:deskcolor="#d1d1d1"
     inkscape:zoom="0.6358349"
     inkscape:cx="308.25612"
     inkscape:cy="555.96193"
     inkscape:window-width="3440"
     inkscape:window-height="1351"
     inkscape:window-x="-9"
     inkscape:window-y="-9"
     inkscape:window-maximized="1"
     inkscape:current-layer="svg114" />
  <defs
     id="defs1">
    <style
       id="style1">
      .brand-name  { font-family: Arial, Helvetica, sans-serif; font-size: 52px; font-weight: 500; letter-spacing: -1px; }
      .brand-sm    { font-family: Arial, Helvetica, sans-serif; font-size: 17px; font-weight: 500; }
      .brand-tag   { font-family: Arial, Helvetica, sans-serif; font-size: 13px; letter-spacing: 3px; }
      .body        { font-family: Arial, Helvetica, sans-serif; font-size: 14px; }
      .sec         { font-family: Arial, Helvetica, sans-serif; font-size: 11px; font-weight: 500; letter-spacing: 2px; fill: #888780; }
      .sw          { font-family: Arial, Helvetica, sans-serif; font-size: 11px; }
      .label-md    { font-family: Arial, Helvetica, sans-serif; font-size: 14px; font-weight: 500; }
      .label-desc  { font-family: Arial, Helvetica, sans-serif; font-size: 12px; }
      .label-sub   { font-family: Arial, Helvetica, sans-serif; font-size: 13px; letter-spacing: 1.5px; }
      .note        { font-family: Arial, Helvetica, sans-serif; font-size: 12px; fill: #444441; }
    </style>
    <marker
       id="arr"
       viewBox="0 0 10 10"
       refX="8"
       refY="5"
       markerWidth="6"
       markerHeight="6"
       orient="auto-start-reverse">
      <path
         d="M2 1L8 5L2 9"
         fill="none"
         stroke="#888780"
         stroke-width="1.5"
         stroke-linecap="round"
         stroke-linejoin="round"
         id="path1" />
    </marker>
  </defs>
  <!-- FONDO GLOBAL -->
  <rect
     width="900"
     height="1260"
     fill="#f7f8fb"
     id="rect1"
     x="-0.60988522"
     y="-0.085169025"
     inkscape:export-filename="logo-fondo-azul-oscuro.svg"
     inkscape:export-xdpi="96"
     inkscape:export-ydpi="96" />
  <!-- ══════════════════════════════════════════════════════ -->
  <!-- SECCIÓN 1: FONDO BLANCO                              -->
  <!-- ══════════════════════════════════════════════════════ -->
  <text
     x="50"
     y="48"
     class="sec"
     id="text1">VERSIÓN PRINCIPAL — FONDO BLANCO</text>
  <rect
     x="50"
     y="62"
     width="800"
     height="210"
     rx="14"
     fill="#FFFFFF"
     stroke="#D3D1C7"
     stroke-width="0.5"
     id="rect2" />
  <!-- ICONO BOMBILLA CON BRAILLE — grande -->
  <!-- Cuerpo -->
  <path
     d="M152 222 Q130 202 130 178 Q130 144 162 134 Q194 124 208 148 Q218 166 208 186 Q203 198 195 208 L195 222 Q195 227 191 227 L173 227 Q169 227 169 222 L169 208 Q160 198 152 222Z"
     fill="#185FA5"
     id="path2" />
  <!-- Base -->
  <rect
     x="169"
     y="225"
     width="22"
     height="7"
     rx="2"
     fill="#0C447C"
     id="rect3" />
  <rect
     x="172"
     y="232"
     width="16"
     height="5"
     rx="2"
     fill="#0C447C"
     id="rect4" />
  <!-- Brillo -->
  <ellipse
     cx="148"
     cy="162"
     rx="7"
     ry="9"
     fill="#B5D4F4"
     opacity="0.5"
     id="ellipse4" />
  <!-- Braille "i": puntos 2 (izq medio) + 4 (der arriba) — sobre el cuerpo -->
  <!-- Punto 1 (arriba izq) inactivo -->
  <circle
     cx="172"
     cy="157"
     r="4.5"
     fill="#042C53"
     opacity="0.22"
     id="circle4"
     style="fill:#000000;fill-opacity:1" />
  <!-- Punto 4 (arriba der) ACTIVO -->
  <circle
     cx="188"
     cy="157"
     r="4.5"
     fill="white"
     id="circle5" />
  <!-- Punto 2 (medio izq) ACTIVO -->
  <circle
     cx="172"
     cy="172"
     r="4.5"
     fill="white"
     id="circle6" />
  <!-- Punto 5 (medio der) inactivo -->
  <circle
     cx="188"
     cy="172"
     r="4.5"
     fill="#042C53"
     opacity="0.22"
     id="circle7"
     style="fill:#000000;fill-opacity:1" />
  <!-- Punto 3 (bajo izq) inactivo -->
  <circle
     cx="172"
     cy="187"
     r="4.5"
     fill="#042C53"
     opacity="0.22"
     id="circle8"
     style="fill:#000000;fill-opacity:1" />
  <!-- Punto 6 (bajo der) inactivo -->
  <circle
     cx="188"
     cy="187"
     r="4.5"
     fill="#042C53"
     opacity="0.22"
     id="circle9"
     style="fill:#000000;fill-opacity:1" />
  <!-- Rayos de luz -->
  <line
     x1="160"
     y1="126"
     x2="156"
     y2="110"
     stroke="#185FA5"
     stroke-width="2.2"
     stroke-linecap="round"
     id="line9" />
  <line
     x1="180"
     y1="122"
     x2="180"
     y2="104"
     stroke="#185FA5"
     stroke-width="2.2"
     stroke-linecap="round"
     id="line10" />
  <line
     x1="198"
     y1="130"
     x2="208"
     y2="116"
     stroke="#185FA5"
     stroke-width="1.8"
     stroke-linecap="round"
     opacity="0.75"
     id="line11" />
  <line
     x1="214"
     y1="152"
     x2="232"
     y2="147"
     stroke="#185FA5"
     stroke-width="1.5"
     stroke-linecap="round"
     opacity="0.6"
     id="line12" />
  <line
     x1="128"
     y1="152"
     x2="110"
     y2="147"
     stroke="#185FA5"
     stroke-width="1.5"
     stroke-linecap="round"
     opacity="0.6"
     id="line13" />
  <line
     x1="218"
     y1="174"
     x2="236"
     y2="176"
     stroke="#185FA5"
     stroke-width="1.2"
     stroke-linecap="round"
     opacity="0.4"
     id="line14" />
  <line
     x1="124"
     y1="174"
     x2="106"
     y2="176"
     stroke="#185FA5"
     stroke-width="1.2"
     stroke-linecap="round"
     opacity="0.4"
     id="line15" />
  <!-- WORDMARK -->
  <text
     x="268"
     y="150"
     class="brand-name"
     fill="#185FA5"
     id="text15">I</text>
  <text
     x="280"
     y="150"
     class="brand-name"
     fill="#0c447c"
     id="text16">lumina</text>
  <line
     x1="268"
     y1="163"
     x2="720"
     y2="163"
     stroke="#185FA5"
     stroke-width="0.5"
     opacity="0.3"
     id="line16" />
  <text
     x="268"
     y="186"
     class="brand-tag"
     fill="#185FA5"
     opacity="0.88"
     id="text17">TERAPIA VISUAL · LOGOPEDIA</text>
  <text
     x="268"
     y="216"
     class="body"
     fill="#444441"
     id="text18">Percibe. Reconoce. Comprende.</text>
  <!-- ══════════════════════════════════════════════════════ -->
  <!-- SECCIÓN 2: FONDO AZUL PRIMARIO                       -->
  <!-- ══════════════════════════════════════════════════════ -->
  <text
     x="50"
     y="318"
     class="sec"
     id="text19">VERSIÓN NEGATIVA — FONDO AZUL</text>
  <rect
     x="50"
     y="332"
     width="800"
     height="168"
     rx="14"
     fill="#185FA5"
     id="rect19" />
  <!-- Icono negativo -->
  <path
     d="m 140,460 q -18,-16 -18,-36 0,-28 26,-36 26,-8 36,12 8,14 0,30 -4,10 -10,18 v 12 q 0,4 -4,4 h -14 q -4,0 -4,-4 v -12 q -8,-8 -12,12 z"
     fill="#ffffff"
     opacity="0.92"
     id="path19"
     inkscape:export-filename="logo-fondo-azul-claro.svg"
     inkscape:export-xdpi="96"
     inkscape:export-ydpi="96" />
  <rect
     x="152"
     y="462"
     width="18"
     height="6"
     rx="2"
     fill="#ffffff"
     opacity="0.65"
     id="rect20" />
  <rect
     x="155"
     y="468"
     width="12"
     height="4"
     rx="1.5"
     fill="#ffffff"
     opacity="0.65"
     id="rect21" />
  <circle
     cx="156"
     cy="406"
     r="3.8"
     fill="#185fa5"
     opacity="0.5"
     id="circle21" />
  <circle
     cx="168"
     cy="406"
     r="3.8"
     fill="#185fa5"
     id="circle22" />
  <circle
     cx="156"
     cy="418"
     r="3.8"
     fill="#185fa5"
     id="circle23" />
  <circle
     cx="168"
     cy="418"
     r="3.8"
     fill="#185fa5"
     opacity="0.5"
     id="circle24" />
  <circle
     cx="156"
     cy="430"
     r="3.8"
     fill="#185fa5"
     opacity="0.5"
     id="circle25" />
  <circle
     cx="168"
     cy="430"
     r="3.8"
     fill="#185fa5"
     opacity="0.5"
     id="circle26" />
  <line
     x1="145"
     y1="379"
     x2="141"
     y2="365"
     stroke="#ffffff"
     stroke-width="2"
     stroke-linecap="round"
     opacity="0.88"
     id="line26" />
  <line
     x1="162"
     y1="376"
     x2="162"
     y2="360"
     stroke="#ffffff"
     stroke-width="2"
     stroke-linecap="round"
     opacity="0.88"
     id="line27" />
  <line
     x1="176"
     y1="383"
     x2="185"
     y2="370"
     stroke="#ffffff"
     stroke-width="1.6"
     stroke-linecap="round"
     opacity="0.7"
     id="line28" />
  <line
     x1="190"
     y1="404"
     x2="204"
     y2="400"
     stroke="#ffffff"
     stroke-width="1.4"
     stroke-linecap="round"
     opacity="0.55"
     id="line29" />
  <line
     x1="120"
     y1="404"
     x2="106"
     y2="400"
     stroke="#ffffff"
     stroke-width="1.4"
     stroke-linecap="round"
     opacity="0.55"
     id="line30" />
  <text
     x="230.95593"
     y="416"
     class="brand-name"
     fill="#ffffff"
     id="text30">Ilumina</text>
  <line
     x1="230"
     y1="426"
     x2="760"
     y2="426"
     stroke="#ffffff"
     stroke-width="0.5"
     opacity="0.3"
     id="line31" />
  <text
     x="235.50085"
     y="443.85223"
     class="brand-tag"
     fill="#ffffff"
     opacity="0.78"
     id="text31">TERAPIA VISUAL · LOGOPEDIA</text>
  <!-- ══════════════════════════════════════════════════════ -->
  <!-- SECCIÓN 3: FONDO AZUL PROFUNDO                       -->
  <!-- ══════════════════════════════════════════════════════ -->
  <text
     x="50"
     y="548"
     class="sec"
     id="text32">VERSIÓN OSCURA — FONDO PROFUNDO</text>
  <rect
     x="50"
     y="562"
     width="800"
     height="168"
     rx="14"
     fill="#042C53"
     id="rect32" />
  <path
     d="m 140,686 q -18,-16 -18,-36 0,-28 26,-36 26,-8 36,12 8,14 0,30 -4,10 -10,18 v 12 q 0,4 -4,4 h -14 q -4,0 -4,-4 v -12 q -8,-8 -12,12 z"
     fill="#378add"
     opacity="0.88"
     id="path32"
     inkscape:export-filename="gigiApp\docs\logo-fondo-azul-oscuro.svg"
     inkscape:export-xdpi="96"
     inkscape:export-ydpi="96" />
  <rect
     x="152"
     y="688"
     width="18"
     height="6"
     rx="2"
     fill="#378add"
     opacity="0.65"
     id="rect33" />
  <rect
     x="155"
     y="694"
     width="12"
     height="4"
     rx="1.5"
     fill="#185fa5"
     id="rect34" />
  <circle
     cx="156"
     cy="632"
     r="3.8"
     fill="#042c53"
     opacity="0.55"
     id="circle34" />
  <circle
     cx="168"
     cy="632"
     r="3.8"
     fill="#042c53"
     id="circle35" />
  <circle
     cx="156"
     cy="644"
     r="3.8"
     fill="#042c53"
     id="circle36" />
  <circle
     cx="168"
     cy="644"
     r="3.8"
     fill="#042c53"
     opacity="0.55"
     id="circle37" />
  <circle
     cx="156"
     cy="656"
     r="3.8"
     fill="#042c53"
     opacity="0.55"
     id="circle38" />
  <circle
     cx="168"
     cy="656"
     r="3.8"
     fill="#042c53"
     opacity="0.55"
     id="circle39" />
  <line
     x1="145"
     y1="605"
     x2="141"
     y2="591"
     stroke="#85b7eb"
     stroke-width="2"
     stroke-linecap="round"
     opacity="0.85"
     id="line39" />
  <line
     x1="162"
     y1="602"
     x2="162"
     y2="586"
     stroke="#85b7eb"
     stroke-width="2"
     stroke-linecap="round"
     opacity="0.85"
     id="line40" />
  <line
     x1="176"
     y1="609"
     x2="185"
     y2="596"
     stroke="#85b7eb"
     stroke-width="1.6"
     stroke-linecap="round"
     opacity="0.65"
     id="line41" />
  <line
     x1="190"
     y1="630"
     x2="204"
     y2="626"
     stroke="#85b7eb"
     stroke-width="1.4"
     stroke-linecap="round"
     opacity="0.5"
     id="line42" />
  <line
     x1="120"
     y1="630"
     x2="106"
     y2="626"
     stroke="#85b7eb"
     stroke-width="1.4"
     stroke-linecap="round"
     opacity="0.5"
     id="line43" />
  <text
     x="230"
     y="644"
     class="brand-name"
     fill="#e6f1fb"
     id="text43">Ilumina</text>
  <line
     x1="230"
     y1="652"
     x2="760"
     y2="652"
     stroke="#85b7eb"
     stroke-width="0.5"
     opacity="0.35"
     id="line44" />
  <text
     x="234.54492"
     y="669.87262"
     class="brand-tag"
     fill="#85b7eb"
     opacity="0.88"
     id="text44">TERAPIA VISUAL · LOGOPEDIA</text>
  <!-- ══════════════════════════════════════════════════════ -->
  <!-- SECCIÓN 4: ICONOS Y BADGES                           -->
  <!-- ══════════════════════════════════════════════════════ -->
  <text
     x="50"
     y="782"
     class="sec"
     id="text45">VARIANTES DE ICONO Y BADGE</text>
  <!-- Icon azul -->
  <rect
     x="50"
     y="798"
     width="90"
     height="90"
     rx="20"
     fill="#185FA5"
     id="rect45" />
  <path
     d="m 86,864 q -10,-10 -10,-18 0,-16 14,-21 14,-5 20,7 5,8 0,17 -2,5 -6,10 v 5 q 0,3 -2,3 h -9 q -2,0 -2,-3 v -5 q -5,-5 -5,5 z"
     fill="#ffffff"
     opacity="0.92"
     id="path45" />
  <rect
     x="91"
     y="865"
     width="11"
     height="4"
     rx="1.5"
     fill="#ffffff"
     opacity="0.65"
     id="rect46" />
  <circle
     cx="91"
     cy="836"
     r="3"
     fill="#185fa5"
     opacity="0.5"
     id="circle46" />
  <circle
     cx="100"
     cy="836"
     r="3"
     fill="#185fa5"
     id="circle47" />
  <circle
     cx="91"
     cy="845"
     r="3"
     fill="#185fa5"
     id="circle48" />
  <circle
     cx="100"
     cy="845"
     r="3"
     fill="#185fa5"
     opacity="0.5"
     id="circle49" />
  <line
     x1="82"
     y1="818"
     x2="79"
     y2="810"
     stroke="#ffffff"
     stroke-width="1.6"
     stroke-linecap="round"
     opacity="0.85"
     id="line49" />
  <line
     x1="94"
     y1="815"
     x2="94"
     y2="806"
     stroke="#ffffff"
     stroke-width="1.6"
     stroke-linecap="round"
     opacity="0.85"
     id="line50" />
  <line
     x1="104"
     y1="820"
     x2="109"
     y2="813"
     stroke="#ffffff"
     stroke-width="1.3"
     stroke-linecap="round"
     opacity="0.65"
     id="line51" />
  <line
     x1="112"
     y1="832"
     x2="119"
     y2="830"
     stroke="#ffffff"
     stroke-width="1.2"
     stroke-linecap="round"
     opacity="0.5"
     id="line52" />
  <line
     x1="68"
     y1="832"
     x2="61"
     y2="830"
     stroke="#ffffff"
     stroke-width="1.2"
     stroke-linecap="round"
     opacity="0.5"
     id="line53" />
  <!-- Icon oscuro -->
  <rect
     x="158"
     y="798"
     width="90"
     height="90"
     rx="20"
     fill="#042C53"
     id="rect53"
     inkscape:export-filename="gigiApp\docs\favico.png"
     inkscape:export-xdpi="96"
     inkscape:export-ydpi="96" />
  <path
     d="m 194,864 q -10,-10 -10,-18 0,-16 14,-21 14,-5 20,7 5,8 0,17 -2,5 -6,10 v 5 q 0,3 -2,3 h -9 q -2,0 -2,-3 v -5 q -5,-5 -5,5 z"
     fill="#378add"
     opacity="0.88"
     id="path53" />
  <rect
     x="199"
     y="865"
     width="11"
     height="4"
     rx="1.5"
     fill="#185fa5"
     id="rect54" />
  <circle
     cx="199"
     cy="836"
     r="3"
     fill="#042c53"
     opacity="0.55"
     id="circle54" />
  <circle
     cx="208"
     cy="836"
     r="3"
     fill="#042c53"
     id="circle55" />
  <circle
     cx="199"
     cy="845"
     r="3"
     fill="#042c53"
     id="circle56" />
  <circle
     cx="208"
     cy="845"
     r="3"
     fill="#042c53"
     opacity="0.55"
     id="circle57" />
  <line
     x1="190"
     y1="818"
     x2="187"
     y2="810"
     stroke="#85b7eb"
     stroke-width="1.6"
     stroke-linecap="round"
     opacity="0.85"
     id="line57" />
  <line
     x1="202"
     y1="815"
     x2="202"
     y2="806"
     stroke="#85b7eb"
     stroke-width="1.6"
     stroke-linecap="round"
     opacity="0.85"
     id="line58" />
  <line
     x1="212"
     y1="820"
     x2="217"
     y2="813"
     stroke="#85b7eb"
     stroke-width="1.3"
     stroke-linecap="round"
     opacity="0.65"
     id="line59" />
  <line
     x1="220"
     y1="832"
     x2="227"
     y2="830"
     stroke="#85b7eb"
     stroke-width="1.2"
     stroke-linecap="round"
     opacity="0.5"
     id="line60" />
  <line
     x1="176"
     y1="832"
     x2="169"
     y2="830"
     stroke="#85b7eb"
     stroke-width="1.2"
     stroke-linecap="round"
     opacity="0.5"
     id="line61" />
  <!-- Icon blanco -->
  <rect
     x="266"
     y="798"
     width="90"
     height="90"
     rx="20"
     fill="white"
     stroke="#D3D1C7"
     stroke-width="0.5"
     id="rect61" />
  <path
     d="m 302,864 q -10,-10 -10,-18 0,-16 14,-21 14,-5 20,7 5,8 0,17 -2,5 -6,10 v 5 q 0,3 -2,3 h -9 q -2,0 -2,-3 v -5 q -5,-5 -5,5 z"
     fill="#185fa5"
     opacity="0.9"
     id="path61" />
  <rect
     x="307"
     y="865"
     width="11"
     height="4"
     rx="1.5"
     fill="#0c447c"
     id="rect62" />
  <circle
     cx="307"
     cy="836"
     r="3"
     fill="#ffffff"
     opacity="0.5"
     id="circle62" />
  <circle
     cx="316"
     cy="836"
     r="3"
     fill="#ffffff"
     id="circle63" />
  <circle
     cx="307"
     cy="845"
     r="3"
     fill="#ffffff"
     id="circle64" />
  <circle
     cx="316"
     cy="845"
     r="3"
     fill="#ffffff"
     opacity="0.5"
     id="circle65" />
  <line
     x1="298"
     y1="818"
     x2="295"
     y2="810"
     stroke="#185fa5"
     stroke-width="1.6"
     stroke-linecap="round"
     opacity="0.8"
     id="line65" />
  <line
     x1="310"
     y1="815"
     x2="310"
     y2="806"
     stroke="#185fa5"
     stroke-width="1.6"
     stroke-linecap="round"
     opacity="0.8"
     id="line66" />
  <line
     x1="320"
     y1="820"
     x2="325"
     y2="813"
     stroke="#185fa5"
     stroke-width="1.3"
     stroke-linecap="round"
     opacity="0.6"
     id="line67" />
  <!-- Badge azul -->
  <rect
     x="382"
     y="798"
     width="220"
     height="52"
     rx="12"
     fill="#185FA5"
     id="rect67" />
  <path
     d="M 398.85822,839.62032 Q 392,832.76209 392,827.61843 q 0,-10.28734 10.28733,-13.71645 10.28734,-3.42911 14.57372,5.14367 3.42912,6.00094 0,12.00189 -0.85727,3.42911 -3.42911,6.85822 v 2.57183 q 0,1.71456 -1.71455,1.71456 h -6.00095 q -1.71455,0 -1.71455,-1.71456 v -2.57183 q -3.42911,-3.42911 -5.14367,1.71456 z"
     fill="#ffffff"
     opacity="0.9"
     id="path67"
     style="stroke-width:0.857278" />
  <circle
     cx="404.00189"
     cy="821.61749"
     r="2.1431944"
     fill="#185fa5"
     opacity="0.5"
     id="circle68"
     style="stroke-width:0.857278" />
  <circle
     cx="410.86011"
     cy="821.61749"
     r="2.1431944"
     fill="#185fa5"
     id="circle69"
     style="stroke-width:0.857278" />
  <circle
     cx="404.00189"
     cy="828.47571"
     r="2.1431944"
     fill="#185fa5"
     id="circle70"
     style="stroke-width:0.857278" />
  <circle
     cx="410.86011"
     cy="828.47571"
     r="2.1431944"
     fill="#185fa5"
     opacity="0.5"
     id="circle71"
     style="stroke-width:0.857278" />
  <line
     x1="397.14368"
     y1="809.6156"
     x2="395.42911"
     y2="804.47192"
     stroke="#ffffff"
     stroke-width="1.4"
     stroke-linecap="round"
     opacity="0.82"
     id="line71" />
  <line
     x1="405.71643"
     y1="807.90106"
     x2="405.71643"
     y2="801.90009"
     stroke="#ffffff"
     stroke-width="1.4"
     stroke-linecap="round"
     opacity="0.82"
     id="line72" />
  <line
     x1="412.57468"
     y1="810.4729"
     x2="416.00378"
     y2="806.18646"
     stroke="#ffffff"
     stroke-width="1.2"
     stroke-linecap="round"
     opacity="0.62"
     id="line73" />
  <text
     x="432"
     y="820"
     class="brand-sm"
     fill="white"
     id="text73">Ilumina</text>
  <text
     x="432"
     y="838"
     class="label-sub"
     fill="white"
     opacity="0.72"
     font-family="Arial, sans-serif"
     id="text74">LOGOPEDIA</text>
  <!-- Badge blanco -->
  <rect
     x="622"
     y="798"
     width="228"
     height="52"
     rx="12"
     fill="white"
     stroke="#D3D1C7"
     stroke-width="0.5"
     id="rect74" />
  <path
     d="m 641.21075,838.71484 q -6.70854,-6.70853 -6.70854,-11.73994 0,-10.06281 10.0628,-13.41707 10.06281,-3.35427 14.25565,5.0314 3.35427,5.86997 0,11.73994 -0.83857,3.35427 -3.35427,6.70854 v 2.5157 q 0,1.67714 -1.67714,1.67714 h -5.86997 q -1.67713,0 -1.67713,-1.67714 v -2.5157 q -3.35427,-3.35427 -5.0314,1.67713 z"
     fill="#185fa5"
     opacity="0.9"
     id="path74"
     style="stroke-width:0.838567" />
  <rect
     x="646.24213"
     y="839.55341"
     width="7.5471058"
     height="2.515702"
     rx="0.83856732"
     fill="#0c447c"
     id="rect75"
     style="stroke-width:0.838567" />
  <circle
     cx="646.24213"
     cy="821.10492"
     fill="#ffffff"
     opacity="0.5"
     id="circle75"
     r="2.0964184"
     style="stroke-width:0.838567" />
  <circle
     cx="652.95068"
     cy="821.10492"
     fill="#ffffff"
     id="circle76"
     r="2.0964184"
     style="stroke-width:0.838567" />
  <circle
     cx="646.24213"
     cy="827.81348"
     fill="#ffffff"
     id="circle77"
     r="2.0964184"
     style="stroke-width:0.838567" />
  <circle
     cx="652.95068"
     cy="827.81348"
     fill="#ffffff"
     opacity="0.5"
     id="circle78"
     r="2.0964184"
     style="stroke-width:0.838567" />
  <line
     x1="639.53363"
     y1="809.36499"
     x2="637.85645"
     y2="804.33356"
     stroke="#185fa5"
     stroke-width="1.17399"
     stroke-linecap="round"
     opacity="0.82"
     id="line78" />
  <line
     x1="647.91931"
     y1="807.68787"
     x2="647.91931"
     y2="801.81787"
     stroke="#185fa5"
     stroke-width="1.17399"
     stroke-linecap="round"
     opacity="0.82"
     id="line79" />
  <line
     x1="654.62781"
     y1="810.20355"
     x2="657.98212"
     y2="806.01074"
     stroke="#185fa5"
     stroke-width="1.00628"
     stroke-linecap="round"
     opacity="0.62"
     id="line80" />
  <text
     x="672"
     y="820"
     class="brand-sm"
     fill="#0C447C"
     id="text80">Ilumina</text>
  <text
     x="672"
     y="838"
     class="label-sub"
     fill="#185FA5"
     opacity="0.78"
     font-family="Arial, sans-serif"
     id="text81">LOGOPEDIA</text>
  <!-- ══════════════════════════════════════════════════════ -->
  <!-- SECCIÓN 5: PALETA                                    -->
  <!-- ══════════════════════════════════════════════════════ -->
  <text
     x="50"
     y="942"
     class="sec"
     id="text82">PALETA CROMÁTICA</text>
  <rect
     x="50"
     y="958"
     width="156"
     height="68"
     rx="8"
     fill="#185FA5"
     id="rect82" />
  <text
     x="128"
     y="982"
     class="sw"
     fill="white"
     text-anchor="middle"
     font-family="Arial, sans-serif"
     id="text83">Azul primario</text>
  <text
     x="128"
     y="998"
     class="sw"
     fill="#B5D4F4"
     text-anchor="middle"
     font-family="Arial, sans-serif"
     id="text84">#185FA5</text>
  <text
     x="128"
     y="1014"
     class="sw"
     fill="#85B7EB"
     text-anchor="middle"
     font-family="Arial, sans-serif"
     id="text85">RGB 24 95 165</text>
  <rect
     x="220"
     y="958"
     width="156"
     height="68"
     rx="8"
     fill="#042C53"
     id="rect85" />
  <text
     x="298"
     y="982"
     class="sw"
     fill="white"
     text-anchor="middle"
     font-family="Arial, sans-serif"
     id="text86">Azul profundo</text>
  <text
     x="298"
     y="998"
     class="sw"
     fill="#85B7EB"
     text-anchor="middle"
     font-family="Arial, sans-serif"
     id="text87">#042C53</text>
  <text
     x="298"
     y="1014"
     class="sw"
     fill="#B5D4F4"
     text-anchor="middle"
     font-family="Arial, sans-serif"
     id="text88">RGB 4 44 83</text>
  <rect
     x="390"
     y="958"
     width="156"
     height="68"
     rx="8"
     fill="#378ADD"
     id="rect88" />
  <text
     x="468"
     y="982"
     class="sw"
     fill="#042C53"
     text-anchor="middle"
     font-family="Arial, sans-serif"
     id="text89">Azul medio</text>
  <text
     x="468"
     y="998"
     class="sw"
     fill="#042C53"
     text-anchor="middle"
     font-family="Arial, sans-serif"
     id="text90">#378ADD</text>
  <text
     x="468"
     y="1014"
     class="sw"
     fill="#042C53"
     text-anchor="middle"
     font-family="Arial, sans-serif"
     id="text91">RGB 55 138 221</text>
  <rect
     x="560"
     y="958"
     width="156"
     height="68"
     rx="8"
     fill="#B5D4F4"
     id="rect91" />
  <text
     x="638"
     y="982"
     class="sw"
     fill="#042C53"
     text-anchor="middle"
     font-family="Arial, sans-serif"
     id="text92">Azul suave</text>
  <text
     x="638"
     y="998"
     class="sw"
     fill="#185FA5"
     text-anchor="middle"
     font-family="Arial, sans-serif"
     id="text93">#B5D4F4</text>
  <text
     x="638"
     y="1014"
     class="sw"
     fill="#185FA5"
     text-anchor="middle"
     font-family="Arial, sans-serif"
     id="text94">RGB 181 212 244</text>
  <rect
     x="730"
     y="958"
     width="120"
     height="68"
     rx="8"
     fill="#888780"
     id="rect94" />
  <text
     x="790"
     y="982"
     class="sw"
     fill="white"
     text-anchor="middle"
     font-family="Arial, sans-serif"
     id="text95">Gris neutro</text>
  <text
     x="790"
     y="998"
     class="sw"
     fill="#D3D1C7"
     text-anchor="middle"
     font-family="Arial, sans-serif"
     id="text96">#888780</text>
  <text
     x="790"
     y="1014"
     class="sw"
     fill="#F1EFE8"
     text-anchor="middle"
     font-family="Arial, sans-serif"
     id="text97">RGB 136 135 128</text>
  <!-- ══════════════════════════════════════════════════════ -->
  <!-- SECCIÓN 6: EJE TERAPÉUTICO                           -->
  <!-- ══════════════════════════════════════════════════════ -->
  <text
     x="50"
     y="1086"
     class="sec"
     id="text98">EJE TERAPÉUTICO — NIVELES DE ABSTRACCIÓN</text>
  <rect
     x="50"
     y="1102"
     width="168"
     height="88"
     rx="8"
     fill="#E6F1FB"
     stroke="#185FA5"
     stroke-width="0.5"
     id="rect98" />
  <!-- Icono concreto: bombilla sólida pequeña -->
  <path
     d="M128 1118 Q121 1111 121 1106 Q121 1096 130 1093 Q139 1090 142 1096 Q145 1101 142 1107 Q141 1110 139 1113 L139 1118 Q139 1120 138 1120 L133 1120 Q132 1120 132 1118 L132 1113 Q129 1110 128 1118Z"
     fill="#185FA5"
     id="path98" />
  <rect
     x="132"
     y="1118"
     width="7"
     height="3"
     rx="1"
     fill="#0C447C"
     id="rect99" />
  <text
     x="134"
     y="1140"
     class="label-md"
     fill="#0C447C"
     text-anchor="middle"
     font-family="Arial, sans-serif"
     id="text102">Concreto</text>
  <text
     x="134"
     y="1157"
     class="label-desc"
     fill="#185FA5"
     text-anchor="middle"
     font-family="Arial, sans-serif"
     id="text103">Objeto real reconocible</text>
  <line
     x1="225"
     y1="1146"
     x2="244"
     y2="1146"
     stroke="#888780"
     stroke-width="1.2"
     marker-end="url(#arr)"
     id="line103" />
  <rect
     x="250"
     y="1102"
     width="168"
     height="88"
     rx="8"
     fill="#E6F1FB"
     stroke="#378ADD"
     stroke-width="0.5"
     id="rect103" />
  <path
     d="M328 1118 Q321 1111 321 1106 Q321 1096 330 1093 Q339 1090 342 1096 Q345 1101 342 1107 Q341 1110 339 1113 L339 1118 Q339 1120 338 1120 L333 1120 Q332 1120 332 1118 L332 1113 Q329 1110 328 1118Z"
     fill="none"
     stroke="#185FA5"
     stroke-width="2"
     id="path103" />
  <rect
     x="332"
     y="1118"
     width="7"
     height="3"
     rx="1"
     fill="none"
     stroke="#0C447C"
     stroke-width="1.2"
     id="rect104" />
  <text
     x="334"
     y="1140"
     class="label-md"
     fill="#0C447C"
     text-anchor="middle"
     font-family="Arial, sans-serif"
     id="text104">Simplificado</text>
  <text
     x="334"
     y="1157"
     class="label-desc"
     fill="#185FA5"
     text-anchor="middle"
     font-family="Arial, sans-serif"
     id="text105">Contorno y forma básica</text>
  <line
     x1="425"
     y1="1146"
     x2="444"
     y2="1146"
     stroke="#888780"
     stroke-width="1.2"
     marker-end="url(#arr)"
     id="line105" />
  <rect
     x="450"
     y="1102"
     width="168"
     height="88"
     rx="8"
     fill="#E6F1FB"
     stroke="#85B7EB"
     stroke-width="0.5"
     id="rect105" />
  <path
     d="M528 1118 Q521 1111 521 1106 Q521 1096 530 1093 Q539 1090 542 1096 Q545 1101 542 1107 Q541 1110 539 1113 L539 1118 Q539 1120 538 1120 L533 1120 Q532 1120 532 1118 L532 1113 Q529 1110 528 1118Z"
     fill="none"
     stroke="#185FA5"
     stroke-width="1"
     stroke-dasharray="3 2"
     id="path105" />
  <line
     x1="534"
     y1="1090"
     x2="534"
     y2="1085"
     stroke="#185FA5"
     stroke-width="1.2"
     stroke-linecap="round"
     id="line106" />
  <line
     x1="540"
     y1="1092"
     x2="543"
     y2="1088"
     stroke="#185FA5"
     stroke-width="1"
     stroke-linecap="round"
     opacity="0.65"
     id="line107" />
  <line
     x1="528"
     y1="1092"
     x2="525"
     y2="1088"
     stroke="#185FA5"
     stroke-width="1"
     stroke-linecap="round"
     opacity="0.65"
     id="line108" />
  <text
     x="534"
     y="1140"
     class="label-md"
     fill="#185FA5"
     text-anchor="middle"
     font-family="Arial, sans-serif"
     id="text108">Esquemático</text>
  <text
     x="534"
     y="1157"
     class="label-desc"
     fill="#378ADD"
     text-anchor="middle"
     font-family="Arial, sans-serif"
     id="text109">Líneas y geometría</text>
  <line
     x1="625"
     y1="1146"
     x2="644"
     y2="1146"
     stroke="#888780"
     stroke-width="1.2"
     marker-end="url(#arr)"
     id="line109" />
  <rect
     x="650"
     y="1102"
     width="200"
     height="88"
     rx="8"
     fill="#185FA5"
     id="rect109" />
  <!-- Icono abstracto: solo puntos braille y rayo mínimo -->
  <circle
     cx="744"
     cy="1114"
     r="3.5"
     fill="#042C53"
     opacity="0.3"
     id="circle109" />
  <circle
     cx="756"
     cy="1114"
     r="3.5"
     fill="white"
     id="circle110" />
  <circle
     cx="744"
     cy="1124"
     r="3.5"
     fill="white"
     id="circle111" />
  <circle
     cx="756"
     cy="1124"
     r="3.5"
     fill="#042C53"
     opacity="0.3"
     id="circle112" />
  <line
     x1="750"
     y1="1108"
     x2="750"
     y2="1102"
     stroke="white"
     stroke-width="1.2"
     stroke-linecap="round"
     opacity="0.7"
     id="line112" />
  <text
     x="750"
     y="1146"
     class="label-md"
     fill="#E6F1FB"
     text-anchor="middle"
     font-family="Arial, sans-serif"
     id="text112">Abstracto</text>
  <text
     x="750"
     y="1163"
     class="label-desc"
     fill="#B5D4F4"
     text-anchor="middle"
     font-family="Arial, sans-serif"
     id="text113">Símbolo puro</text>
  <!-- ══════════════════════════════════════════════════════ -->
  <!-- PIE                                                   -->
  <!-- ══════════════════════════════════════════════════════ -->
  <text
     x="450"
     y="1240"
     class="sw"
     fill="#888780"
     text-anchor="middle"
     font-family="Arial, sans-serif"
     id="text114">Ilumina · Identidad Corporativa · v2.0 · Terapia Visual para Logopedas</text>
  <line
     x1="286.60001"
     y1="831.59998"
     x2="279.60001"
     y2="829.59998"
     stroke="#85b7eb"
     stroke-width="1.2"
     stroke-linecap="round"
     opacity="0.5"
     id="line61-4" />
  <rect
     x="404.00189"
     y="840.4776"
     width="7.7154999"
     height="2.5718331"
     rx="0.85727775"
     fill="#ffffff"
     opacity="0.65"
     id="rect68"
     style="stroke-width:0.857278;fill:#ffffff;fill-opacity:1" />
  <line
     x1="117.63157"
     y1="427.95587"
     x2="99.631577"
     y2="429.95587"
     stroke="#185fa5"
     stroke-width="1.2"
     stroke-linecap="round"
     opacity="0.4"
     id="line15-4" />
  <line
     x1="191.52771"
     y1="423.97327"
     x2="209.52771"
     y2="425.97327"
     stroke="#185fa5"
     stroke-width="1.2"
     stroke-linecap="round"
     opacity="0.4"
     id="line14-5" />
  <text
     x="234.72546"
     y="471.97549"
     class="body"
     fill="#444441"
     id="text18-1"
     style="font-size:14px;font-family:Arial, Helvetica, sans-serif;fill:#ffffff;fill-opacity:1">Percibe. Reconoce. Comprende.</text>
  <text
     x="233.76953"
     y="696.01624"
     class="body"
     fill="#444441"
     id="text18-1-2"
     style="font-size:14px;font-family:Arial, Helvetica, sans-serif;fill:#ffffff;fill-opacity:1">Percibe. Reconoce. Comprende.</text>
  <circle
     cx="333.54483"
     cy="1097.4493"
     r="1.1595539"
     fill="#042C53"
     opacity="0.22"
     id="circle4-1"
     style="fill:#4b98e5;fill-opacity:1;stroke-width:0.257679;opacity:1" />
  <circle
     cx="337.66766"
     cy="1097.4493"
     r="1.1595539"
     fill="#ffffff"
     id="circle5-4"
     style="fill:#000000;fill-opacity:1;stroke-width:0.257679" />
  <circle
     cx="333.54483"
     cy="1101.3146"
     r="1.1595539"
     fill="#ffffff"
     id="circle6-2"
     style="fill:#000000;fill-opacity:1;stroke-width:0.257679" />
  <circle
     cx="337.66766"
     cy="1101.3146"
     r="1.1595539"
     fill="#042C53"
     opacity="0.22"
     id="circle7-3"
     style="fill:#4b98e5;fill-opacity:1;stroke-width:0.257679;opacity:1" />
  <circle
     cx="333.54483"
     cy="1105.1797"
     r="1.1595539"
     fill="#042C53"
     opacity="0.22"
     id="circle8-2"
     style="fill:#4b98e5;fill-opacity:1;stroke-width:0.257679;opacity:1" />
  <circle
     cx="337.66766"
     cy="1105.1797"
     r="1.1595539"
     fill="#042C53"
     opacity="0.22"
     id="circle9-2"
     style="fill:#4b98e5;fill-opacity:1;stroke-width:0.257679;opacity:1" />
  <circle
     cx="533.8078"
     cy="1097.2267"
     r="1.1595539"
     fill="#042C53"
     opacity="0.22"
     id="circle4-1-4"
     style="fill:#6695c3;fill-opacity:1;stroke-width:0.257679;opacity:1" />
  <circle
     cx="537.93066"
     cy="1097.2267"
     r="1.1595539"
     fill="#ffffff"
     id="circle5-4-1"
     style="fill:#000000;fill-opacity:1;stroke-width:0.257679" />
  <circle
     cx="533.8078"
     cy="1101.0919"
     r="1.1595539"
     fill="#ffffff"
     id="circle6-2-1"
     style="fill:#000000;fill-opacity:1;stroke-width:0.257679" />
  <circle
     cx="537.93066"
     cy="1101.0919"
     r="1.1595539"
     fill="#042C53"
     opacity="0.22"
     id="circle7-3-38"
     style="fill:#6695c3;fill-opacity:1;stroke-width:0.257679;opacity:1" />
  <circle
     cx="533.8078"
     cy="1104.957"
     r="1.1595539"
     fill="#042C53"
     opacity="0.22"
     id="circle8-2-7"
     style="fill:#6695c3;fill-opacity:1;stroke-width:0.257679;opacity:1" />
  <circle
     cx="537.93066"
     cy="1104.957"
     r="1.1595539"
     fill="#042C53"
     opacity="0.22"
     id="circle9-2-4"
     style="fill:#6695c3;fill-opacity:1;stroke-width:0.257679;opacity:1" />
  <circle
     cx="133.42256"
     cy="1096.8997"
     r="1.1595539"
     fill="#042C53"
     opacity="0.22"
     id="circle4-1-9"
     style="opacity:0.987539;fill:#b5d4f4;fill-opacity:1;stroke-width:0.257679" />
  <circle
     cx="137.54539"
     cy="1096.8997"
     r="1.1595539"
     fill="#ffffff"
     id="circle5-4-5"
     style="fill:#000000;fill-opacity:1;stroke-width:0.257679" />
  <circle
     cx="133.42256"
     cy="1100.7649"
     r="1.1595539"
     fill="#ffffff"
     id="circle6-2-4"
     style="fill:#000000;fill-opacity:1;stroke-width:0.257679" />
  <circle
     cx="137.54539"
     cy="1100.7649"
     r="1.1595539"
     fill="#042C53"
     opacity="0.22"
     id="circle7-3-3"
     style="opacity:0.987539;fill:#b5d4f4;fill-opacity:1;stroke-width:0.257679" />
  <circle
     cx="133.42256"
     cy="1104.63"
     r="1.1595539"
     fill="#042C53"
     opacity="0.22"
     id="circle8-2-1"
     style="opacity:0.987539;fill:#b5d4f4;fill-opacity:1;stroke-width:0.257679" />
  <circle
     cx="137.54539"
     cy="1104.63"
     r="1.1595539"
     fill="#042C53"
     opacity="0.22"
     id="circle9-2-2"
     style="opacity:0.987539;fill:#b5d4f4;fill-opacity:1;stroke-width:0.257679" />
</svg>
